<?xml version="1.0" encoding="UTF-8"?>
<svg xmlns="http://www.w3.org/2000/svg" width="512" height="512" viewBox="0 0 512 512">
  <rect width="512" height="512" rx="96" fill="#fbf8f2"/>
  <g transform="translate(65 36) scale(1.35)">
<path d="M.38,81.523l.049-.079c22.813,5.107,72.278-42.221,109.877,32.918-3.226,2.177-6.186,4.701-8.868,7.551-5.008,5.315-8.888,11.49-11.629,18.507-2.415,6.186-3.771,12.737-4.058,19.675C-.323,166.241,16.324,98.862.38,81.523Z" style="fill: #94523d;"/>
    <path d="M110.316,211.58C72.697,286.777,23.222,239.42.409,244.517l-.049-.069c15.954-17.34-.683-84.739,85.402-78.563.297,6.928,1.643,13.47,4.048,19.616,2.742,7.017,6.621,13.183,11.629,18.507,2.692,2.85,5.651,5.374,8.878,7.571Z" style="fill: #94523d;"/>
    <path d="M168.263,214.737c45.813,69.863-19.705,88.994-26.682,111.263h-.089c-6.987-22.298-72.664-41.479-26.455-111.55,1.366.742,2.781,1.435,4.236,2.078,6.869,3.028,14.44,4.543,22.704,4.543,8.155,0,15.598-1.475,22.328-4.414,1.356-.594,2.672-1.237,3.959-1.92Z" style="fill: #94523d;"/>
    <path d="M115.007,111.501C68.887,41.439,134.544,22.299,141.531,0h.089c6.958,22.219,72.209,41.35,26.93,110.827-3.098-1.584-6.512-2.88-10.234-3.899-4.84-1.336-10.283-1.999-16.34-1.999-8.264,0-15.835,1.504-22.704,4.503-1.465.633-2.89,1.326-4.266,2.068Z" style="fill: #94523d;"/>
    <path d="M282.733,244.478l-.049.079c-22.783-5.097-72.159,42.112-109.729-32.64,3.226-2.167,6.186-4.681,8.888-7.532,4.949-5.236,8.779-11.293,11.5-18.161,2.494-6.334,3.85-13.104,4.048-20.329,86.035-6.136,69.398,61.243,85.342,78.583Z" style="fill: #94523d;"/>
    <path d="M173.232,113.549c37.559-73.971,86.748-26.989,109.471-32.066l.049.069c-15.954,17.33.673,84.699-85.332,78.573v-2.474h-56.71v14.093h36.837c-.277,4.523-1.326,8.759-3.137,12.688-1.811,3.939-4.276,7.373-7.383,10.323-3.118,2.939-6.78,5.245-10.996,6.918-4.216,1.673-8.897,2.504-14.054,2.504-5.483,0-10.54-1.089-15.152-3.266-4.612-2.187-8.601-5.166-11.975-8.957-3.365-3.791-5.968-8.185-7.809-13.163-1.831-4.978-2.751-10.273-2.751-15.875s.92-10.887,2.751-15.835c1.841-4.949,4.444-9.323,7.809-13.114,3.375-3.791,7.363-6.77,11.975-8.917,4.612-2.148,9.669-3.226,15.152-3.226,7.076,0,13.074,1.465,18.003,4.375,4.919,2.91,8.907,6.552,11.966,10.907l16.469-8.313c-1.979-2.999-4.384-5.928-7.215-8.789-2.336-2.356-4.988-4.513-7.967-6.453Z" style="fill: #94523d;"/>
  </g>
</svg>
