<?xml version="1.0" encoding="UTF-8"?>
<svg id="Layer_1" data-name="Layer 1" xmlns="http://www.w3.org/2000/svg" width="1028" height="326" viewBox="0 0 1028 326">
  <g>
    <path d="M552.944,118.371l-3.774,20.614-59.562-.026s8.954-3.412,8.954-15.914c0-8.966.046-23.784.046-35.866,0-12.424-9-15.94-9-15.94h30.181s-8.954,3.516-8.954,15.94v48.306h19.336c12.889,0,22.773-17.114,22.773-17.114Z" style="fill: #94523d;"/>
    <path d="M607.913,138.959h-19.174l-.508-4.955c-3.417,3.441-7.855,5.788-13.317,5.788-8.45,0-16.455-5.678-16.455-13.15,0-10.5,8.854-13.412,17.068-13.412,5.015,0,9.205,1.219,12.568,3.657v-9.741c0-4.053.712-9.863-7.403-9.863-9.094,0-10.142,11.461-10.142,11.461l-8.995-5.468s4.938-9.43,18.221-9.43c15.764,0,20.544,7.946,20.544,15.135l-.044,21.277c0,5.366,7.636,8.7,7.636,8.7h.001ZM588.231,120.807c-2.576-2.437-5.394-3.656-8.454-3.656-7.919,0-9.227,4.461-9.227,9.601,0,7.414,5.086,8.723,7.818,8.723,5.427,0,9.288-5.151,9.864-5.856v-8.811h-.001Z" style="fill: #94523d;"/>
    <path d="M692.171,92.883c0,13.284-10.347,23.362-26.555,23.362h-10.165v6.774c0,12.424,8.954,15.94,8.954,15.94h-30.181s9-3.516,9-15.94c0-12.082-.046-26.899-.046-35.866,0-12.502-8.954-15.914-8.954-15.914l31.392.009c12.923,0,26.555,4.211,26.554,21.635h0ZM679.399,93.193c0-12.421-5.213-18.493-13.783-18.493h-10.165v38.093h6.332c11.418,0,17.616-8.267,17.616-19.6Z" style="fill: #94523d;"/>
    <path d="M723.167,135.541c11.071,0,18.122-6.584,18.122-6.584,0,0-4.611,10.835-21.031,10.835-8.066,0-24-6.225-24-23.149,0-15.034,11.334-22.716,24.454-22.716,18.256,0,21,17.433,21,20.628h-32.908v1.342c0,6.704,1.335,19.643,14.364,19.643h0ZM709.031,110.886h20.454c-.061-4.28-.803-7.55-2.227-9.81-1.425-2.26-3.757-3.391-7-3.391-6.576,0-10.318,4.4-11.227,13.2h0Z" style="fill: #94523d;"/>
    <path d="M781.479,132.082s-3.903,7.704-12.818,7.704c-10.818,0-16.227-4.691-16.227-14.073v-27.617h-5.5v-3.372h5.5l12.045-16.907v16.907h14.955v3.373h-14.955v30.61c0,5.46,1.636,7.319,6.409,7.319,6.375,0,10.591-3.942,10.591-3.942v-.002Z" style="fill: #94523d;"/>
    <path d="M793.263,130.259v-21.926c0-6.642-7.409-10.15-7.409-10.15l19.454-3.416v35.493c0,5.365,7.636,8.699,7.636,8.699h-26.772s7.09-3.386,7.091-8.7ZM796.058,86.305c-3.535-1.464-5.214-5.516-3.749-9.051,1.464-3.534,5.517-5.213,9.051-3.749,3.535,1.464,5.214,5.516,3.749,9.051-1.464,3.534-5.517,5.213-9.051,3.749Z" style="fill: #94523d;"/>
    <path d="M848.947,132.082s-3.903,7.704-12.818,7.704c-10.818,0-16.227-4.691-16.227-14.073v-27.617h-5.5v-3.372h5.5l12.045-16.907v16.907h14.955v3.373h-14.955v30.61c0,5.46,1.636,7.319,6.409,7.319,6.375,0,10.591-3.942,10.591-3.942v-.002Z" style="fill: #94523d;"/>
    <path d="M879.835,135.541c11.071,0,18.122-6.584,18.122-6.584,0,0-4.611,10.835-21.031,10.835-8.066,0-24-6.225-24-23.149,0-15.034,11.334-22.716,24.454-22.716,18.256,0,21,17.433,21,20.628h-32.908v1.342c0,6.704,1.335,19.643,14.364,19.643h0ZM865.698,110.886h20.454c-.061-4.28-.803-7.55-2.227-9.81-1.425-2.26-3.757-3.391-7-3.391-6.576,0-10.318,4.4-11.227,13.2h0Z" style="fill: #94523d;"/>
    <path d="M422.32,189.197h50.59s-10.326,5.727-10.326,14.572v22.513c-3.255,4.315-26.074,16.125-50.196,16.125-33.52,0-60.568-26.337-60.568-58.313s27.487-58.323,60.88-58.323c27.889,0,51.016,16.991,51.016,16.991l-9.401,20.92s-7.554-32.385-42.203-32.387l-.002.02c-25.341.62-38.032,24.004-38.032,52.78s13.319,52.323,38.31,52.787c18.73,0,30.665-11.361,30.825-12.426v-20.211c0-9.189-20.892-15.046-20.892-15.046v-.002h-.001Z" style="fill: #94523d;"/>
    <path d="M564.152,240.185h-31.762l-.84-8.208c-5.66,5.701-13.012,9.589-22.061,9.589-13.996,0-27.256-9.406-27.256-21.783,0-17.393,14.666-22.216,28.273-22.216,8.307,0,15.247,2.019,20.819,6.057v-16.135c0-6.714,1.179-16.338-12.263-16.338-15.064,0-16.801,18.987-16.801,18.987l-14.898-9.058s8.179-15.621,30.183-15.621c26.113,0,34.032,13.162,34.032,25.072l-.074,35.244c0,8.889,12.649,14.411,12.649,14.411h0ZM531.551,210.118c-4.267-4.038-8.935-6.057-14.005-6.057-13.117,0-15.285,7.389-15.285,15.904,0,12.281,8.425,14.449,12.951,14.449,8.99,0,15.384-8.533,16.339-9.701v-14.595Z" style="fill: #94523d;"/>
    <path d="M650.381,178.619l-10.354,9.849s-4.985-16.205-15.701-16.205c-8.182,0-15.586,5.138-22.211,12.653v40.858c0,8.715,13.703,14.41,13.703,14.41h-45.477s12.198-5.824,12.198-14.41v-36.248c0-11.154-12.273-16.885-12.273-16.885l31.85-5.73v10.996c7.528-7.379,16.138-12.449,25.825-12.449,13.575,0,22.442,13.162,22.441,13.161h0Z" style="fill: #94523d;"/>
    <path d="M741.747,203.512c0,24.248-19.011,38.054-42.46,38.054s-42.461-14.583-42.461-38.054c0-23.637,19.011-38.054,42.461-38.054s42.46,14.416,42.46,38.054ZM721.066,203.511c0-18.445-5.987-32.186-21.779-32.186s-21.78,13.741-21.78,32.186,5.825,31.897,21.78,31.897c15.066,0,21.779-13.452,21.779-31.897Z" style="fill: #94523d;"/>
    <path d="M841.753,240.183h-29.138v-7.019c-6.677,4.727-13.891,7.091-21.647,7.091-18.721,0-30.832-8.873-30.832-24.786v-25.944c0-11.002-10.692-16.885-10.692-16.885l30.268-5.73v52.718c0,10.076,4.894,15.113,14.682,15.113,6.777,0,12.85-2.961,18.221-8.882v-36.464c0-11.024-13.026-16.755-13.026-16.755l32.452-5.73v58.864c0,8.715,9.713,14.41,9.713,14.41h-.001Z" style="fill: #94523d;"/>
    <path d="M939.538,203.511c0,23.637-19.01,38.054-42.46,38.054-6.503,0-12.653-1.124-18.162-3.232l-.036,34.714c0,8.888,12.649,14.41,12.649,14.41h-44.348s11.746-5.608,11.746-14.41l.036-85.996c0-8.887-12.649-14.41-12.649-14.41l32.602-5.802v6.514c3.195-2.659,10.63-7.895,19.635-7.895,23.45,0,40.987,14.583,40.986,38.054h.001ZM918.857,203.511c0-18.445-5.823-31.897-21.778-31.897-8.799,0-18.162,7.002-18.162,12.092v42.966s1.399,9.025,18.162,9.025c15.774,0,21.779-13.741,21.778-32.186h0Z" style="fill: #94523d;"/>
    <path d="M996.921,234.523c18.339,0,30.019-10.906,30.019-10.906,0,0-7.638,17.949-34.839,17.949-13.362,0-39.755-10.312-39.755-38.346,0-24.904,18.774-37.629,40.509-37.629,30.24,0,34.785,28.878,34.785,34.17h-54.513v2.224c0,11.106,2.211,32.539,23.793,32.539h0ZM973.504,193.683h33.882c-.101-7.089-1.33-12.506-3.689-16.251-2.36-3.744-6.224-5.616-11.596-5.616-10.893,0-17.092,7.289-18.598,21.866h0Z" style="fill: #94523d;"/>
  </g>
  <g>
    <path d="M.38,81.523l.049-.079c22.813,5.107,72.278-42.221,109.877,32.918-3.226,2.177-6.186,4.701-8.868,7.551-5.008,5.315-8.888,11.49-11.629,18.507-2.415,6.186-3.771,12.737-4.058,19.675C-.323,166.241,16.324,98.862.38,81.523Z" style="fill: #94523d;"/>
    <path d="M110.316,211.58C72.697,286.777,23.222,239.42.409,244.517l-.049-.069c15.954-17.34-.683-84.739,85.402-78.563.297,6.928,1.643,13.47,4.048,19.616,2.742,7.017,6.621,13.183,11.629,18.507,2.692,2.85,5.651,5.374,8.878,7.571Z" style="fill: #94523d;"/>
    <path d="M168.263,214.737c45.813,69.863-19.705,88.994-26.682,111.263h-.089c-6.987-22.298-72.664-41.479-26.455-111.55,1.366.742,2.781,1.435,4.236,2.078,6.869,3.028,14.44,4.543,22.704,4.543,8.155,0,15.598-1.475,22.328-4.414,1.356-.594,2.672-1.237,3.959-1.92Z" style="fill: #94523d;"/>
    <path d="M115.007,111.501C68.887,41.439,134.544,22.299,141.531,0h.089c6.958,22.219,72.209,41.35,26.93,110.827-3.098-1.584-6.512-2.88-10.234-3.899-4.84-1.336-10.283-1.999-16.34-1.999-8.264,0-15.835,1.504-22.704,4.503-1.465.633-2.89,1.326-4.266,2.068Z" style="fill: #94523d;"/>
    <path d="M282.733,244.478l-.049.079c-22.783-5.097-72.159,42.112-109.729-32.64,3.226-2.167,6.186-4.681,8.888-7.532,4.949-5.236,8.779-11.293,11.5-18.161,2.494-6.334,3.85-13.104,4.048-20.329,86.035-6.136,69.398,61.243,85.342,78.583Z" style="fill: #94523d;"/>
    <path d="M173.232,113.549c37.559-73.971,86.748-26.989,109.471-32.066l.049.069c-15.954,17.33.673,84.699-85.332,78.573v-2.474h-56.71v14.093h36.837c-.277,4.523-1.326,8.759-3.137,12.688-1.811,3.939-4.276,7.373-7.383,10.323-3.118,2.939-6.78,5.245-10.996,6.918-4.216,1.673-8.897,2.504-14.054,2.504-5.483,0-10.54-1.089-15.152-3.266-4.612-2.187-8.601-5.166-11.975-8.957-3.365-3.791-5.968-8.185-7.809-13.163-1.831-4.978-2.751-10.273-2.751-15.875s.92-10.887,2.751-15.835c1.841-4.949,4.444-9.323,7.809-13.114,3.375-3.791,7.363-6.77,11.975-8.917,4.612-2.148,9.669-3.226,15.152-3.226,7.076,0,13.074,1.465,18.003,4.375,4.919,2.91,8.907,6.552,11.966,10.907l16.469-8.313c-1.979-2.999-4.384-5.928-7.215-8.789-2.336-2.356-4.988-4.513-7.967-6.453Z" style="fill: #94523d;"/>
  </g>
</svg>