<?xml version="1.0" encoding="UTF-8"?><svg id="Layer_1" xmlns="http://www.w3.org/2000/svg" width="1080" height="1080" viewBox="0 0 1080 1080"><circle cx="540" cy="540" r="540" style="fill:#fff;"/><path d="M749.54,550.827c-.706-2.053-2.737-4.085-2.652-5.924.043-.877,2.288-3.443,2.951-5.047,2.203-5.411.321-13.409-4.17-17.301-4.384-3.785-17.023-8.833-22.862-10.223-14.436-3.507-33.02-4.962-47.905-3.978-7.678.535-15.27,2.181-22.947,2.823-.449.043-1.176.577-1.176-.321-.043-1.369,6.009-4.94,7.378-5.539,8.875-3.935,17.836-6.223,26.284-11.463,18.948-11.698,28.059-24.744,40.334-42.024,1.903-2.673,4.876-5.197,6.544-8.169,2.673-4.684,1.583-9.667-2.438-13.366-1.754-1.604-8.319-3.465-8.897-4.47-.663-1.198.278-4.234.299-5.732-.064-5.646-3.101-14.35-7.335-18.221-4.021-3.636-8.79-3.914-13.516-5.347-4.855-1.433-2.695-1.839-3.978-5.069-2.117-5.347-5.304-7.635-10.843-9.175-4.855-1.39-18.585-.128-22.947,1.989-3.101,1.476-5.86,3.956-8.982,5.539-7.079,3.593-16.745,6.737-22.691,11.891-.984.877-1.882,2.331-2.823,3.122-.342.299-1.24,1.005-1.454.257.599-.278.855-.813,1.112-1.369,2.673-5.774,4.534-12.361,7.143-18.028,3.443-7.464,7.763-10.757,4.683-19.953-4.983-14.863-15.441-27.909-30.924-32.678-4.491-1.39-8.362.064-12.212-.47-3.015-.406-4.705-4.021-6.865-6.031-4.277-3.999-13.773-9.068-19.633-9.902-3.828-.535-17.686.684-21.236,1.903-2.459.834-5.133,2.673-7.87,3.678-4.384,1.604-11.463,2.716-15.141,5.368-1.069.77-1.262,1.925-2.844,2.502-1.369.492-8.726.428-11.014.663-2.16.235-7.057.62-8.832,1.069-1.732.428-2.31,1.005-1.839,2.716,1.24,4.277,4.213,9.346,5.603,13.944,2.951,9.645,4.406,21.13,6.138,31.052,1.732,9.987,5.56,26.177,5.539,35.736,0,.748-.171,1.39-.535,2.053l-6.822-9.324c-14.714-14.778-31.01-35.052-50.108-44.398-10.971-5.325-41.104-8.169-50.364.642-1.176,1.134-1.689,2.866-3.293,3.614-1.967.898-4.341.449-6.373.792-5.154.877-17.644,9.367-21.236,13.366-3.614,3.999-2.16,8.041-2.802,12.896-.278,2.352-1.048,4.106-1.497,6.245-.193.962.492,2.288-.492,3.058-.962.792-2.395.792-3.465,1.882-2.16,2.117-1.54,9.089-1.818,11.976-.77,7.357-2.31,12.468.342,20.018,4.042,11.399,19.44,25.792,29.492,32.828,2.652,1.839,6.266,2.994,8.191,5.646l-6.908-2.288c-6.608-3.058-13.794-7.635-20.723-9.709-7.421-2.203-28.914-6.758-36.142-6.459-2.438.086-11.591.749-13.388,1.497-2.438,1.026-6.822,6.288-7.571,8.747-.599,1.989-.064,11.805.577,13.922.406,1.326,1.176,3.037,1.818,4.277.877,1.647,5.239,6.523,4.02,8.127-.299.363-5.453-.193-7.849,1.775-3.828,6.116-11.035,10.651-7.1,18.67,2.866,5.881,9.196,12.981,14.265,17.258,1.839,1.583,5.218,3.187,6.63,4.983,2.63,3.379,4.641,9.752,7.87,14.008,8.64,11.399,26.07,17.045,39.928,19.076,5.197.749,10.351.107,15.591.406-.193.855-.877,1.026-1.54,1.369-7.806,3.914-17.109,6.48-25.086,10.287-5.71,2.694-12.639,6.565-18.135,9.752-3.486,2.032-16.767,9.795-17.216,13.409-.406,2.93,4.192,5.197,2.909,7.999-1.24,2.652-2.844,1.262-2.823,6.031.085,15.035,6.929,27.652,17.558,38.174,1.454,1.433,6.437,5.132,7.036,6.352.706,1.39-.941,5.518-.749,7.549.813,8.062,12.49,20.937,19.804,24.744,13.965,7.207,37.533-3.55,49.017-11.912,8.148-5.903,15.27-13.794,23.012-19.569.599-.47,1.219-.812,1.946-1.005-1.347,5.582-4.876,10.822-6.672,16.403-2.096,6.523-4.684,18.905-5.667,25.749-1.754,12.404.471,19.782,9.667,28.893,8.768,8.704,13.238,6.694,24.402,7.314,2.139.128,4.94.898,6.95.984,1.796.085,4.833-.62,6.159-.321,1.518.342,4.384,3.978,5.86,5.239,8.234,6.993,18.2,7.892,28.615,5.261,5.368-1.39,9.346-3.7,14.436-5.732,7.25,3.165,14.2,7.057,21.964,2.374,3.743-2.288,4.384-5.411,6.48-8.512,5.924-8.704,8.704-11.698,11.164-22.306,1.369-5.903,1.882-11.976,2.224-18.007.086-.278.77-1.261.834-1.304.92-.3,5.453,7.784,6.288,9.003,7.335,10.629,19.996,31.053,36.143,25.813,2.63-.834,4.726-3.636,6.95-4.513,4.94-1.967,11.463,1.198,16.489-.406,4.684-1.476,14.286-10.929,16.724-15.206,1.155-2.01,1.369-4.341,2.288-6.266,1.347-2.866,4.406-5.432,5.731-8.148,1.176-2.352.642-4.79,3.443-6.48,6.394-3.807,9.196-6.031,10.864-13.602,3.743-17.216-4.705-31.438-14.329-44.868-4.47-6.202-9.239-12.254-13.986-18.242.556-.385.962-.342,1.583-.214,2.139.342,7.656,3.764,10.394,4.79,11.527,4.17,22.477,5.967,34.218,8.661,8.854,2.032,23.054,9.367,29.47-.813,2.716-4.32,1.433-7.785,1.946-12.233.107-.748,1.048-4.983,1.326-5.347,1.39-1.882,4.641-1.347,6.651-2.245,3.251-1.412,6.715-5.71,7.464-9.132.706-3.229.834-15.484.706-19.248-.107-3.229-1.176-7.015-1.112-10.201.171-6.416,2.652-13.773.385-20.36ZM627.126,555.467c-.15.086-14.478,8.212-14.478,20.124v33.961c0,.47-.15.92-.449,1.283-5.796,7.699-41.061,25.193-77.418,25.193-51.562,0-93.522-40.441-93.522-90.121s42.174-90.142,93.992-90.142c42.28,0,76.776,24.979,78.231,26.048.813.599,1.091,1.69.684,2.609l-14.2,31.566c-.364.834-1.219,1.326-2.139,1.241-.92-.086-1.668-.749-1.882-1.647-.449-1.903-11.634-46.985-61.25-47.199-.085.021-.192.021-.278.021-26.733.663-55.305,21.365-55.305,77.503,0,46.451,21.878,76.862,55.711,77.503,25.642,0,42.174-14.521,44.312-17.173v-29.941c0-10.03-21.621-18.306-29.962-20.637-1.026-.278-1.668-1.283-1.54-2.353.15-1.048,1.048-1.839,2.117-1.839h76.327c.984,0,1.818.641,2.074,1.604.235.941-.193,1.925-1.026,2.395Z" style="fill:#be9757;"/><path d="M539.999,865.069c-179.244,0-325.068-145.825-325.068-325.069s145.825-325.069,325.068-325.069,325.069,145.825,325.069,325.069-145.825,325.069-325.069,325.069ZM539.999,223.485c-174.527,0-316.514,141.988-316.514,316.515s141.987,316.515,316.514,316.515,316.515-141.988,316.515-316.515-141.988-316.515-316.515-316.515Z" style="fill:#be9757;"/><path d="M157.279,451.699l21.537,7.124-8.922,63.847s-2.321-10.108-15.724-11.975c-9.613-1.339-25.492-3.601-38.445-5.405-13.32-1.855-18.434,7.268-18.434,7.268l4.507-32.355s2.432,10.125,15.752,11.98c10.621,1.479,41.141,5.731,51.789,7.214l2.887-20.728c1.925-13.817-14.947-26.969-14.947-26.969Z" style="fill:#be9757;"/><path d="M178.265,404.056c-.858.046-3.466.184-3.466.184l-9.671,28.255s1.988,1.623,2.661,2.168c10.77,8.73,17.475,2.228,17.475,2.228l-6.293,18.387s-1.902-6.188-12.888-15.634c-11.473-9.866-45.818-39.404-45.818-39.404l1.848-5.401s45.606-3.317,60.819-4.423c14.45-1.051,19.826-4.636,19.826-4.636l-8.683,25.369s-1.127-7.874-15.811-7.093ZM170.75,404.518l-35.874,2.492,27.191,22.877,8.683-25.369Z" style="fill:#be9757;"/><path d="M223.073,264.505c11.512,8.619,13.533,24.124,3.017,38.169l-6.595,8.809c2.339,1.752,4.356,3.262,5.87,4.396,10.767,8.062,19.623,2.583,19.623,2.583l-19.582,26.152s2.792-10.079-7.975-18.141c-10.471-7.84-23.341-17.416-31.111-23.234-10.834-8.112-19.6-2.567-19.6-2.567l20.375-27.196c8.384-11.198,20.879-20.279,35.978-8.972ZM215.054,275.773c-10.764-8.059-19.408-7.481-24.968-.056l-6.595,8.809c6.467,4.841,22.035,16.499,33.012,24.717l4.108-5.486c7.408-9.893,4.266-20.628-5.556-27.984Z" style="fill:#be9757;"/><path d="M298.958,229.987l12.186,19.139-48.37,44.846s4.593-9.3-4.613-19.222c-6.604-7.115-17.48-18.907-26.377-28.495-9.15-9.86-18.881-6.023-18.881-6.023l46.571-43.257,18.176,13.581s-20.447-6.305-30.675,3.187l-14.671,13.613,21.106,22.746c1.91-1.771,4.478-4.154,5.656-5.248,9.255-8.588,5.817-20.006,5.817-20.006l16.947,18.262s-11.292-3.803-20.222,4.484c-1.178,1.092-3.746,3.475-5.656,5.248l21.106,22.744,16.43-15.246c10.228-9.492,5.468-30.352,5.468-30.352Z" style="fill:#be9757;"/><path d="M313.82,164.262c5.69,9.123,21.999,35.27,27.675,44.368,7.118,11.412,17.355,9.511,17.355,9.511l-27.718,17.291s6.251-8.385-.867-19.797c-5.675-9.1-22.013-35.229-27.713-44.345l-4.394,2.74c-11.838,7.385-8.836,27.347-8.836,27.347l-8.344-21.094,50.404-31.44,15.275,16.773s-16.609-11.476-28.446-4.091l-4.39,2.738Z" style="fill:#be9757;"/><path d="M405.455,196.001l-29.861,13.251s7.361-7.308,1.871-19.678c-3.937-8.874-10.398-23.556-15.702-35.511-5.455-12.293-15.904-11.821-15.904-11.821l29.861-13.251s-7.315,7.41-1.86,19.705c5.305,11.955,11.81,26.616,15.748,35.49,5.49,12.37,15.846,11.815,15.846,11.815Z" style="fill:#be9757;"/><path d="M426.26,116.396c2.939,10.344,11.368,39.988,14.3,50.305,3.678,12.938,14.043,13.949,14.043,13.949l-31.428,8.935s8.329-6.326,4.651-19.264c-2.932-10.317-11.391-39.953-14.342-50.293l-4.983,1.416c-13.421,3.816-16.069,23.832-16.069,23.832l-2.173-22.585,57.148-16.244,10.031,20.348s-12.782-15.628-26.202-11.815l-4.977,1.416Z" style="fill:#be9757;"/><path d="M540.144,147.324l-2.162,22.585-65.725,5.61s9.342-4.509,8.185-17.997c-.829-9.672-2.151-25.659-3.268-38.693-1.149-13.402-11.182-16.361-11.182-16.361l63.327-5.459,5.977,21.887s-12.243-17.547-26.146-16.355l-19.941,1.71,2.65,30.916c2.596-.223,6.086-.522,7.688-.66,12.581-1.078,16.894-12.195,16.894-12.195l2.128,24.822s-6.564-9.943-18.702-8.903c-1.602.138-5.092.439-7.688.66l2.652,30.916,22.332-1.915c13.903-1.193,22.98-20.567,22.98-20.567Z" style="fill:#be9757;"/><path d="M678.704,160.137s-7.464,1.963-8.891,7.567c-.906,3.565-3.628,14.262-3.628,14.262-2.757,2.21-19.114,6.013-34.393,2.126-21.232-5.403-34.12-26.444-28.965-46.699,5.138-20.2,26.808-32.518,47.96-27.136,17.664,4.494,29.575,18.982,29.575,18.982l-9.325,11.737s.432-21.731-21.511-27.315l-.006.013c-16.15-3.69-27.957,9.077-32.595,27.305-4.653,18.291.004,35.291,15.758,39.612,11.865,3.018,21.255-2.256,21.528-2.905,0,0,2.444-9.603,3.258-12.802,1.481-5.823-10.81-12.899-10.81-12.899l32.046,8.151Z" style="fill:#be9757;"/><path d="M717.621,196.819c.056-.858.228-3.465.228-3.465l-26.914-12.951s-1.848,1.781-2.469,2.385c-9.947,9.661-4.283,17.092-4.283,17.092l-17.516-8.429s6.372-1.155,17.055-10.946c11.159-10.227,44.562-40.836,44.562-40.836l5.144,2.475s-2.111,45.688-2.813,60.925c-.666,14.475,2.258,20.24,2.258,20.24l-24.168-11.629s7.953-.186,8.918-14.862ZM718.054,189.301l1.775-35.922-25.943,24.293,24.168,11.629Z" style="fill:#be9757;"/><path d="M775.297,233.767c.579-3.928,1.986-13.895,2.646-18.588l-6.965-5.215-9.851,13.157c-8.062,10.766-2.586,19.623-2.586,19.623l-26.152-19.582s10.081,2.792,18.143-7.976c7.838-10.47,17.414-23.339,23.232-31.11,8.112-10.835,2.567-19.6,2.567-19.6l28.126,21.058c15.1,11.305,18.976,21.862,11.631,31.672-6.629,8.853-17.46,8.185-26.885,4.371-.439,3.085-2.253,15.812-2.884,20.44-2.051,15.004,4.022,24.536,4.022,24.536l-28.08-21.025s10.933,2.508,13.036-11.762ZM804.972,208.82c6.955-9.29,2.832-16.109-4.173-21.355l-8.308-6.232-19.273,25.739,9.022,6.756c6.654,4.981,13.893,6.896,22.731-4.908Z" style="fill:#be9757;"/><path d="M869.482,300.131c-15.718,14.008-40.393,11.971-55.117-4.549-14.722-16.52-13.918-41.266,1.8-55.274,15.716-14.008,40.391-11.971,55.115,4.549,14.724,16.52,13.918,41.266-1.798,55.274ZM859.804,289.273c14.229-12.681,20.05-29.373,8.782-42.014-11.318-12.7-28.516-8.774-42.745,3.908-14.229,12.681-19.859,29.586-8.782,42.014,11.207,12.575,28.516,8.774,42.745-3.908Z" style="fill:#be9757;"/><path d="M924.438,356.284l-27.008,15.327c-11.324,6.424-26.845,6.324-36.473-10.647-10.014-17.65-4.766-33.656,8.673-41.281,0,0,20.787-11.756,25.768-14.584,11.698-6.637,10.2-16.988,10.2-16.988l16.123,28.416s-8.093-6.554-19.793.084l-27.148,15.392c-16.854,9.563-13.51,20.308-10.115,26.296,9.563,16.852,22.739,13.454,31.004,8.765l26.39-14.972c11.625-6.595,10.3-16.817,10.3-16.817l11.528,20.321s-7.826-5.908-19.45.687Z" style="fill:#be9757;"/><path d="M946.946,435.943c-13.636,4.578-27.547-2.571-33.132-19.206l-3.502-10.434c-2.769.929-5.159,1.731-6.953,2.333-12.754,4.281-13.277,14.684-13.277,14.684l-10.401-30.979s6.71,8.026,19.465,3.745c12.401-4.162,27.597-9.317,36.801-12.406,12.832-4.309,13.249-14.676,13.249-14.676l10.808,32.225c4.453,13.266,4.829,28.708-13.059,34.713ZM942.228,422.94c12.75-4.281,17.188-11.723,14.235-20.519l-3.502-10.434c-7.661,2.571-26.102,8.761-39.105,13.126l2.182,6.499c3.935,11.721,14.557,15.233,26.19,11.328Z" style="fill:#be9757;"/><path d="M932.061,518.054l-22.668-.898-9.271-65.303s5.023,9.074,18.423,7.166c9.609-1.368,25.498-3.58,38.447-5.424,13.316-1.896,15.71-12.08,15.71-12.08l8.991,62.92-21.518,7.191s16.833-13.206,14.866-27.019l-2.822-19.811-30.718,4.373c.368,2.579.86,6.048,1.088,7.64,1.779,12.5,13.12,16.184,13.12,16.184l-24.663,3.511s9.561-7.109,7.842-19.168c-.226-1.591-.721-5.06-1.088-7.638l-30.718,4.373,3.162,22.19c1.967,13.813,21.818,21.793,21.816,21.793Z" style="fill:#be9757;"/><path d="M539.999,1041.505c-133.956,0-259.895-52.166-354.616-146.888-94.722-94.721-146.888-220.662-146.888-354.617s52.165-259.896,146.888-354.617c94.721-94.722,220.66-146.888,354.616-146.888s259.896,52.165,354.617,146.888c94.721,94.721,146.888,220.659,146.888,354.617s-52.166,259.896-146.888,354.617c-94.721,94.721-220.659,146.888-354.617,146.888ZM539.999,47.05c-131.671,0-255.462,51.276-348.568,144.381-93.106,93.106-144.381,216.898-144.381,348.569s51.276,255.462,144.381,348.569c93.106,93.105,216.897,144.381,348.568,144.381s255.462-51.277,348.569-144.381c93.105-93.107,144.381-216.898,144.381-348.569s-51.277-255.463-144.381-348.569c-93.107-93.106-216.898-144.381-348.569-144.381Z" style="fill:#be9757;"/><path d="M321.18,906.359c.157-.844.634-3.411.634-3.411l-25.203-16.025s-2.044,1.554-2.731,2.078c-11.013,8.425-6.262,16.468-6.262,16.468l-16.4-10.428s6.461-.397,18.219-8.864c12.28-8.843,49.046-35.308,49.046-35.308l4.816,3.064s-7.465,45.113-9.955,60.161c-2.363,14.294-.138,20.361-.138,20.361l-22.628-14.388s7.919.75,10.601-13.709ZM322.492,898.947l5.987-35.458-28.614,21.071,22.628,14.388Z" style="fill:#be9757;"/><path d="M437.689,898.232s-9.801.259-14.778,12.663c-5.221,13.013-20.883,52.051-20.883,52.051l-8.489-3.406-17.535-75.572s-12.944,32.265-17.259,43.021c-5.007,12.481,2.841,19.732,2.841,19.732l-21.682-8.699s9.36-.347,14.368-12.83c3.614-9.008,9.584-23.888,14.457-36.035,5.037-12.556-1.518-19.202-1.518-19.202l20.678,8.295,15.467,68.442s11.311-28.195,15.081-37.593c4.977-12.404-2.431-19.567-2.431-19.567l21.683,8.699Z" style="fill:#be9757;"/><path d="M485.515,910.333c-1.738,10.612-6.712,41.028-8.444,51.613-2.172,13.274,6.781,18.598,6.781,18.598l-32.246-5.276s10.229-2.185,12.401-15.459c1.731-10.584,6.675-41.008,8.398-51.621l-5.111-.835c-13.772-2.253-24.678,14.738-24.678,14.738l7.633-21.365,58.636,9.59.428,22.685s-4.923-19.582-18.694-21.833l-5.106-.835Z" style="fill:#be9757;"/><path d="M555.901,984.03l-32.664-.528s9.751-3.536,9.97-17.069c.157-9.703.466-25.741.677-38.817.217-13.448-9.461-17.412-9.461-17.412l32.664.528s-9.753,3.649-9.97,17.096c-.211,13.076-.47,29.114-.629,38.819-.217,13.533,9.413,17.383,9.413,17.383Z" style="fill:#be9757;"/><path d="M641.709,951.052c3.536,21.451-29.337,26.841-29.337,26.841l-34.191,5.637s8.964-5.221,6.76-18.575c-1.579-9.578-4.139-25.413-6.265-38.318-2.189-13.27-12.42-15.442-12.42-15.442l36.471-6.013s25.277-5.196,28.249,12.832c1.548,9.392-3.757,15.196-9.194,18.602,8.665.414,18.118,3.465,19.926,14.436ZM594.281,939.931l12.449-2.053c8.13-1.339,12.197-7.94,10.601-17.614-1.926-11.685-9.979-12.055-14.523-11.307-2.822.466-9.58,1.579-13.272,2.189l4.745,28.786ZM627.833,952.884c-2.366-14.356-17.33-11.838-17.33-11.838l-15.614,2.573,5.349,32.445c3.07-.505,7.289-1.201,11.754-1.938,8.774-1.445,18.207-6.888,15.841-21.242Z" style="fill:#be9757;"/><path d="M725.723,920.001l4.357,22.265-61.406,24.089s7.673-6.982,2.723-19.582c-3.548-9.035-9.367-23.984-14.15-36.158-4.916-12.52-15.378-12.502-15.378-12.502l59.15-23.264,11.961,19.279s-16.733-13.333-29.719-8.233l-18.627,7.316,11.343,28.882c2.425-.952,5.685-2.233,7.182-2.822,11.752-4.616,12.721-16.499,12.721-16.499l9.108,23.189s-9.125-7.663-20.463-3.21c-1.495.589-4.755,1.869-7.18,2.822l11.343,28.88,20.862-8.195c12.988-5.1,16.173-26.259,16.173-26.256Z" style="fill:#be9757;"/><path d="M797.765,877.197c6.499,9.858.388,25.943-12.084,34.168-17.817,11.748-33.595,6.142-33.595,6.142l-.685-13.331s17.138,13.536,32.004,3.734c11.581-7.636,11.967-15.904,9.966-18.936-7.22-10.952-50.228,10.38-63.006-9.001-7.502-11.376-.353-23.23,12.698-31.837,12.855-8.475,28.303-7.389,28.303-7.389l.779,13.473s-13.74-11.249-27.219-2.362c-9.336,6.157-8.974,13.525-6.654,17.042,8.64,13.103,49.552-6.777,59.493,8.298Z" style="fill:#be9757;"/><path d="M170.727,681.766l2.353,7.995c3.207,10.893,11.726,19.412,22.62,22.619l7.995,2.353c1.599.47,1.599,2.735,0,3.206l-7.995,2.353c-10.893,3.207-19.413,11.726-22.62,22.619l-2.353,7.995c-.47,1.599-2.735,1.599-3.206,0l-2.353-7.995c-3.207-10.893-11.726-19.413-22.619-22.619l-7.995-2.353c-1.599-.471-1.599-2.735,0-3.206l7.995-2.353c10.893-3.207,19.413-11.726,22.619-22.619l2.353-7.995c.471-1.599,2.735-1.599,3.206,0Z" style="fill:#be9757;"/><path d="M906.41,681.766l2.353,7.995c3.207,10.893,11.726,19.412,22.62,22.619l7.995,2.353c1.599.47,1.599,2.735,0,3.206l-7.995,2.353c-10.893,3.207-19.413,11.726-22.62,22.619l-2.353,7.995c-.47,1.599-2.735,1.599-3.206,0l-2.353-7.995c-3.207-10.893-11.726-19.413-22.619-22.619l-7.995-2.353c-1.599-.471-1.599-2.735,0-3.206l7.995-2.353c10.893-3.207,19.413-11.726,22.619-22.619l2.353-7.995c.471-1.599,2.735-1.599,3.206,0Z" style="fill:#be9757;"/></svg>