<?xml version="1.0" encoding="UTF-8"?><svg id="Layer_1" xmlns="http://www.w3.org/2000/svg" width="1080" height="326" viewBox="0 0 1080 326"><path d="M325.136,174.231c-.525-1.527-2.036-3.037-1.972-4.405.032-.652,1.702-2.56,2.195-3.753,1.638-4.023.239-9.971-3.101-12.865-3.26-2.815-12.66-6.568-17.002-7.602-10.735-2.608-24.556-3.69-35.626-2.958-5.71.398-11.356,1.622-17.065,2.099-.334.032-.875.429-.875-.238-.032-1.018,4.469-3.674,5.487-4.119,6.6-2.926,13.264-4.628,19.546-8.524,14.091-8.699,20.866-18.399,29.995-31.249,1.416-1.988,3.626-3.864,4.867-6.075,1.988-3.483,1.177-7.188-1.813-9.939-1.304-1.193-6.187-2.576-6.616-3.324-.493-.891.207-3.149.223-4.262-.048-4.198-2.306-10.671-5.455-13.549-2.99-2.704-6.537-2.91-10.052-3.976-3.61-1.066-2.004-1.368-2.958-3.769-1.575-3.976-3.944-5.677-8.063-6.822-3.61-1.034-13.821-.095-17.065,1.479-2.306,1.097-4.358,2.942-6.68,4.119-5.264,2.672-12.453,5.009-16.874,8.842-.732.652-1.4,1.733-2.099,2.322-.254.223-.922.747-1.081.191.445-.207.636-.604.827-1.018,1.988-4.294,3.372-9.192,5.312-13.406,2.561-5.55,5.773-7.999,3.483-14.837-3.706-11.052-11.483-20.753-22.997-24.299-3.34-1.034-6.219.048-9.081-.35-2.242-.302-3.499-2.99-5.105-4.485-3.181-2.974-10.242-6.743-14.6-7.363-2.847-.398-13.153.509-15.793,1.415-1.829.62-3.817,1.988-5.853,2.735-3.26,1.193-8.525,2.02-11.26,3.992-.795.572-.938,1.431-2.115,1.861-1.018.366-6.489.318-8.191.493-1.606.175-5.248.461-6.568.795-1.288.318-1.718.747-1.368,2.02.922,3.181,3.133,6.949,4.167,10.369,2.195,7.172,3.276,15.712,4.565,23.091,1.288,7.427,4.135,19.465,4.119,26.574,0,.557-.127,1.034-.398,1.527l-5.073-6.934c-10.942-10.989-23.061-26.065-37.264-33.014-8.159-3.96-30.568-6.075-37.455.477-.875.843-1.256,2.131-2.449,2.687-1.463.668-3.229.334-4.739.589-3.833.652-13.121,6.965-15.793,9.939-2.688,2.974-1.606,5.979-2.083,9.589-.207,1.749-.779,3.053-1.113,4.644-.143.716.366,1.702-.366,2.274-.716.589-1.781.589-2.576,1.399-1.606,1.575-1.145,6.759-1.352,8.905-.573,5.471-1.718,9.271.254,14.885,3.006,8.476,14.457,19.179,21.932,24.411,1.972,1.368,4.66,2.226,6.091,4.198l-5.137-1.702c-4.914-2.274-10.258-5.677-15.411-7.22-5.519-1.638-21.502-5.025-26.878-4.803-1.813.064-8.62.557-9.956,1.113-1.813.763-5.073,4.676-5.63,6.504-.445,1.479-.048,8.778.429,10.353.302.986.875,2.258,1.352,3.181.652,1.225,3.896,4.85,2.99,6.043-.223.27-4.056-.143-5.837,1.32-2.847,4.548-8.207,7.92-5.28,13.883,2.131,4.373,6.839,9.653,10.608,12.833,1.368,1.177,3.881,2.369,4.93,3.705,1.956,2.513,3.451,7.252,5.853,10.416,6.425,8.476,19.387,12.674,29.693,14.185,3.865.557,7.698.08,11.594.302-.143.636-.652.763-1.145,1.018-5.805,2.91-12.723,4.819-18.656,7.649-4.246,2.004-9.399,4.882-13.487,7.252-2.592,1.511-12.469,7.283-12.803,9.971-.302,2.179,3.117,3.864,2.163,5.948-.922,1.972-2.115.938-2.099,4.484.064,11.18,5.153,20.562,13.057,28.387,1.082,1.065,4.787,3.817,5.233,4.723.525,1.034-.7,4.103-.557,5.614.604,5.995,9.288,15.569,14.727,18.399,10.386,5.359,27.912-2.64,36.453-8.858,6.06-4.389,11.356-10.257,17.113-14.551.445-.35.907-.604,1.447-.747-1.002,4.151-3.626,8.047-4.962,12.197-1.559,4.85-3.483,14.058-4.215,19.147-1.304,9.224.35,14.71,7.189,21.485,6.521,6.473,9.845,4.978,18.147,5.439,1.59.096,3.674.668,5.169.732,1.336.063,3.594-.461,4.58-.239,1.129.254,3.26,2.958,4.358,3.896,6.123,5.2,13.535,5.868,21.28,3.912,3.992-1.034,6.95-2.751,10.735-4.262,5.392,2.354,10.56,5.248,16.334,1.765,2.783-1.702,3.26-4.023,4.819-6.329,4.406-6.473,6.473-8.699,8.302-16.586,1.018-4.389,1.4-8.906,1.654-13.39.064-.207.573-.938.62-.97.684-.223,4.056,5.788,4.676,6.695,5.455,7.904,14.87,23.091,26.878,19.195,1.956-.62,3.515-2.704,5.169-3.356,3.674-1.463,8.525.891,12.262-.302,3.483-1.097,10.624-8.126,12.437-11.307.859-1.495,1.018-3.228,1.702-4.659,1.002-2.131,3.276-4.039,4.262-6.059.875-1.749.477-3.562,2.561-4.818,4.755-2.831,6.839-4.484,8.079-10.114,2.783-12.802-3.499-23.377-10.656-33.364-3.324-4.612-6.871-9.112-10.401-13.565.414-.286.716-.254,1.177-.159,1.59.254,5.694,2.799,7.729,3.562,8.572,3.101,16.715,4.437,25.447,6.441,6.584,1.511,17.145,6.965,21.916-.604,2.02-3.212,1.066-5.789,1.447-9.096.08-.557.779-3.705.986-3.976,1.034-1.399,3.451-1.002,4.946-1.67,2.417-1.05,4.994-4.246,5.551-6.791.525-2.401.62-11.514.525-14.312-.08-2.401-.875-5.216-.827-7.586.127-4.771,1.972-10.241.286-15.139ZM234.1,177.682c-.111.064-10.767,6.107-10.767,14.965v25.254c0,.35-.111.684-.334.954-4.31,5.725-30.536,18.733-57.573,18.733-38.345,0-69.549-30.072-69.549-67.014s31.363-67.03,69.899-67.03c31.443,0,57.096,18.574,58.178,19.369.604.445.811,1.256.509,1.94l-10.56,23.472c-.27.62-.907.986-1.59.922-.684-.064-1.241-.557-1.4-1.225-.334-1.415-8.652-34.938-45.55-35.097-.064.016-.143.016-.207.016-19.88.493-41.128,15.887-41.128,57.632,0,34.541,16.27,57.155,41.431,57.632,19.069,0,31.363-10.798,32.954-12.77v-22.264c0-7.458-16.079-13.613-22.282-15.346-.763-.207-1.241-.954-1.145-1.749.111-.779.779-1.367,1.575-1.367h56.762c.732,0,1.352.477,1.543,1.193.175.7-.143,1.431-.763,1.781Z" style="fill:#be9757;"/><path d="M605.303,130.446l-3.774,20.614-59.562-.026s8.954-3.412,8.954-15.914c0-8.966.046-23.784.046-35.866,0-12.424-9-15.94-9-15.94h30.181s-8.954,3.516-8.954,15.94v48.306h19.336c12.889,0,22.773-17.114,22.773-17.114Z" style="fill:#be9757;"/><path d="M660.272,151.034h-19.174l-.508-4.955c-3.417,3.441-7.855,5.788-13.317,5.788-8.45,0-16.455-5.678-16.455-13.15,0-10.5,8.854-13.412,17.068-13.412,5.015,0,9.205,1.219,12.568,3.657v-9.741c0-4.053.712-9.863-7.403-9.863-9.094,0-10.142,11.461-10.142,11.461l-8.995-5.468s4.938-9.43,18.221-9.43c15.764,0,20.544,7.946,20.544,15.135l-.044,21.277c0,5.366,7.636,8.7,7.636,8.7ZM640.59,132.882c-2.576-2.437-5.394-3.656-8.454-3.656-7.919,0-9.227,4.461-9.227,9.601,0,7.414,5.086,8.723,7.818,8.723,5.427,0,9.288-5.151,9.864-5.856v-8.811Z" style="fill:#be9757;"/><path d="M744.53,104.958c0,13.284-10.347,23.362-26.555,23.362h-10.165v6.774c0,12.424,8.954,15.94,8.954,15.94h-30.181s9-3.516,9-15.94c0-12.082-.046-26.899-.046-35.866,0-12.502-8.954-15.914-8.954-15.914l31.392.009c12.923,0,26.555,4.211,26.554,21.635ZM731.758,105.268c0-12.421-5.213-18.493-13.783-18.493h-10.165v38.093h6.332c11.418,0,17.616-8.267,17.616-19.6Z" style="fill:#be9757;"/><path d="M775.526,147.616c11.071,0,18.122-6.584,18.122-6.584,0,0-4.611,10.835-21.031,10.835-8.066,0-24-6.225-24-23.149,0-15.034,11.334-22.716,24.454-22.716,18.256,0,21,17.433,21,20.628h-32.908v1.342c0,6.704,1.335,19.643,14.364,19.643ZM761.39,122.961h20.454c-.061-4.28-.803-7.55-2.227-9.81-1.425-2.26-3.757-3.391-7-3.391-6.576,0-10.318,4.4-11.227,13.2Z" style="fill:#be9757;"/><path d="M833.838,144.157s-3.903,7.704-12.818,7.704c-10.818,0-16.227-4.691-16.227-14.073v-27.617h-5.5v-3.372h5.5l12.045-16.907v16.907h14.955v3.373h-14.955v30.61c0,5.46,1.636,7.319,6.409,7.319,6.375,0,10.591-3.942,10.591-3.942Z" style="fill:#be9757;"/><path d="M845.622,142.334v-21.926c0-6.642-7.409-10.15-7.409-10.15l19.454-3.416v35.493c0,5.365,7.636,8.699,7.636,8.699h-26.772s7.09-3.386,7.091-8.7ZM848.417,98.38c-3.535-1.464-5.214-5.516-3.749-9.051,1.464-3.534,5.517-5.213,9.051-3.749,3.535,1.464,5.214,5.516,3.749,9.051-1.464,3.534-5.517,5.213-9.051,3.749Z" style="fill:#be9757;"/><path d="M901.306,144.157s-3.903,7.704-12.818,7.704c-10.818,0-16.227-4.691-16.227-14.073v-27.617h-5.5v-3.372h5.5l12.045-16.907v16.907h14.955v3.373h-14.955v30.61c0,5.46,1.636,7.319,6.409,7.319,6.375,0,10.591-3.942,10.591-3.942Z" style="fill:#be9757;"/><path d="M932.194,147.616c11.071,0,18.122-6.584,18.122-6.584,0,0-4.611,10.835-21.031,10.835-8.066,0-24-6.225-24-23.149,0-15.034,11.334-22.716,24.454-22.716,18.256,0,21,17.433,21,20.628h-32.908v1.342c0,6.704,1.335,19.643,14.364,19.643ZM918.057,122.961h20.454c-.061-4.28-.803-7.55-2.227-9.81-1.425-2.26-3.757-3.391-7-3.391-6.576,0-10.318,4.4-11.227,13.2Z" style="fill:#be9757;"/><path d="M474.679,201.272h50.59s-10.326,5.727-10.326,14.572v22.513c-3.255,4.315-26.074,16.125-50.196,16.125-33.52,0-60.568-26.337-60.568-58.313s27.487-58.323,60.88-58.323c27.889,0,51.016,16.991,51.016,16.991l-9.401,20.92s-7.554-32.385-42.203-32.387l-.002.02c-25.341.62-38.032,24.004-38.032,52.78s13.319,52.323,38.31,52.787c18.73,0,30.665-11.361,30.825-12.426v-20.211c0-9.189-20.892-15.046-20.892-15.046v-.002Z" style="fill:#be9757;"/><path d="M616.511,252.26h-31.762l-.84-8.208c-5.66,5.701-13.012,9.589-22.061,9.589-13.996,0-27.256-9.406-27.256-21.783,0-17.393,14.666-22.216,28.273-22.216,8.307,0,15.247,2.019,20.819,6.057v-16.135c0-6.714,1.179-16.338-12.263-16.338-15.064,0-16.801,18.987-16.801,18.987l-14.898-9.058s8.179-15.621,30.183-15.621c26.113,0,34.032,13.162,34.032,25.072l-.074,35.244c0,8.889,12.649,14.411,12.649,14.411ZM583.91,222.193c-4.267-4.038-8.935-6.057-14.005-6.057-13.117,0-15.285,7.389-15.285,15.904,0,12.281,8.425,14.449,12.951,14.449,8.99,0,15.384-8.533,16.339-9.701v-14.595Z" style="fill:#be9757;"/><path d="M702.74,190.694l-10.354,9.849s-4.985-16.205-15.701-16.205c-8.182,0-15.586,5.138-22.211,12.653v40.858c0,8.715,13.703,14.41,13.703,14.41h-45.477s12.198-5.824,12.198-14.41v-36.248c0-11.154-12.273-16.885-12.273-16.885l31.85-5.73v10.996c7.528-7.379,16.138-12.449,25.825-12.449,13.575,0,22.442,13.162,22.441,13.161Z" style="fill:#be9757;"/><path d="M794.106,215.587c0,24.248-19.011,38.054-42.46,38.054s-42.461-14.583-42.461-38.054c0-23.637,19.011-38.054,42.461-38.054s42.46,14.416,42.46,38.054ZM773.425,215.586c0-18.445-5.987-32.186-21.779-32.186s-21.78,13.741-21.78,32.186,5.825,31.897,21.78,31.897c15.066,0,21.779-13.452,21.779-31.897Z" style="fill:#be9757;"/><path d="M894.112,252.258h-29.138v-7.019c-6.677,4.727-13.891,7.091-21.647,7.091-18.721,0-30.832-8.873-30.832-24.786v-25.944c0-11.002-10.692-16.885-10.692-16.885l30.268-5.73v52.718c0,10.076,4.894,15.113,14.682,15.113,6.777,0,12.85-2.961,18.221-8.882v-36.464c0-11.024-13.026-16.755-13.026-16.755l32.452-5.73v58.864c0,8.715,9.713,14.41,9.713,14.41h0Z" style="fill:#be9757;"/><path d="M991.897,215.586c0,23.637-19.01,38.054-42.46,38.054-6.503,0-12.653-1.124-18.162-3.232l-.036,34.714c0,8.888,12.649,14.41,12.649,14.41h-44.348s11.746-5.608,11.746-14.41l.036-85.996c0-8.887-12.649-14.41-12.649-14.41l32.602-5.802v6.514c3.195-2.659,10.63-7.895,19.635-7.895,23.45,0,40.987,14.583,40.986,38.054ZM971.216,215.586c0-18.445-5.823-31.897-21.778-31.897-8.799,0-18.162,7.002-18.162,12.092v42.966s1.399,9.025,18.162,9.025c15.774,0,21.779-13.741,21.778-32.186Z" style="fill:#be9757;"/><path d="M1049.28,246.598c18.339,0,30.019-10.906,30.019-10.906,0,0-7.638,17.949-34.839,17.949-13.362,0-39.755-10.312-39.755-38.346,0-24.904,18.774-37.629,40.509-37.629,30.24,0,34.785,28.878,34.785,34.17h-54.513v2.224c0,11.106,2.211,32.539,23.793,32.539ZM1025.863,205.758h33.882c-.101-7.089-1.33-12.506-3.689-16.251-2.36-3.744-6.224-5.616-11.596-5.616-10.893,0-17.092,7.289-18.598,21.866Z" style="fill:#be9757;"/></svg>